<?xml version="1.0" encoding="UTF-8"?>
<svg id="Layer_1" xmlns="http://www.w3.org/2000/svg" viewBox="0 0 23.5 7.05">
  <defs>
    <style>
      .cls-1 {
        fill: #d3aa8b;
        fill-rule: evenodd;
      }

      .cls-2 {
        fill: #fff;
      }
    </style>
  </defs>
  <path class="cls-1" d="M3.53.26c.22-.17.48-.26.76-.26.33,0,.65.13.88.37l1.52,1.52c.23.23.37.55.37.88,0,.28-.09.54-.26.76.17.22.26.48.26.76,0,.33-.13.65-.37.88l-1.52,1.52c-.23.23-.55.37-.88.37-.28,0-.54-.09-.76-.26-.22.17-.48.26-.76.26-.33,0-.65-.13-.88-.37l-1.52-1.52C.13,4.93,0,4.62,0,4.29c0-.28.09-.54.26-.76C.09,3.31,0,3.04,0,2.77c0-.33.13-.65.37-.88L1.88.37c.24-.23.55-.37.88-.37.28,0,.54.09.76.26h0ZM5.82,1.51c-.1.15-.15.32-.15.5,0,.24.09.47.26.64l.62.62c.1-.15.15-.32.15-.5,0-.24-.09-.47-.26-.64l-.62-.62h0ZM5.54,1.24l-.62-.62c-.17-.17-.4-.26-.63-.26-.18,0-.35.05-.5.15l.62.62c.17.17.4.26.64.26.18,0,.35-.05.5-.15h0ZM4.81,3.53c-.17-.22-.26-.48-.26-.76,0-.1.01-.21.04-.31-.1.03-.2.04-.31.04-.28,0-.54-.09-.76-.26-.22.17-.48.26-.76.26-.1,0-.21-.01-.31-.04.03.1.04.2.04.31,0,.28-.09.54-.26.76.17.22.26.48.26.76,0,.1-.01.21-.04.31.1-.03.2-.04.31-.04.28,0,.54.09.76.26.22-.17.48-.26.76-.26.1,0,.21.01.31.04-.03-.1-.04-.2-.04-.31,0-.28.09-.54.26-.76h0ZM5.06,3.27l.51-.51c-.16-.22-.25-.48-.25-.75,0-.1.01-.21.04-.31-.1.03-.2.04-.31.04-.33,0-.65-.13-.88-.37l-.64-.64-.51.51.64.64c.17.17.4.26.64.26s.47-.09.64-.26l.25.25c-.17.17-.26.4-.26.64,0,.18.05.35.15.5h0ZM3.27.5c-.15-.1-.32-.15-.5-.15-.24,0-.47.09-.64.26l-.62.62c.15.1.32.15.5.15.24,0,.47-.09.64-.26l.62-.62h0ZM5.35,5.35c-.03-.1-.04-.2-.04-.31,0-.33.13-.65.37-.88l.63-.64-.51-.51-.64.64c-.17.17-.26.4-.26.64s.09.47.26.64l-.25.25c-.17-.17-.4-.26-.63-.26-.18,0-.35.05-.5.15l.51.51c.22-.16.48-.25.75-.25.1,0,.21.01.31.04h0ZM1.7,5.35c.1-.03.2-.04.31-.04.33,0,.65.13.88.37l.63.64.51-.51-.64-.64c-.17-.17-.4-.26-.64-.26-.24,0-.47.09-.64.26l-.25-.25c.17-.17.26-.4.26-.64,0-.18-.05-.35-.15-.5l-.51.51c.16.22.25.48.25.75,0,.1-.01.21-.04.31h0ZM3.79,6.55c.15.1.32.15.5.15.24,0,.47-.09.64-.26l.62-.62c-.15-.1-.32-.15-.5-.15-.24,0-.47.09-.64.26l-.62.62h0ZM6.55,3.79l-.62.62c-.17.17-.26.4-.26.64,0,.18.05.35.15.5l.62-.62c.17-.17.26-.4.26-.64,0-.18-.05-.35-.15-.5h0ZM3.27,2l-.51-.51c-.22.16-.48.25-.75.25-.1,0-.21-.01-.31-.04.03.1.04.2.04.31,0,.33-.13.65-.37.88l-.64.64.51.51.64-.64c.17-.17.26-.4.26-.64,0-.24-.09-.47-.26-.64l.25-.25c.17.17.4.26.64.26.18,0,.35-.05.5-.15h0ZM.5,3.79c-.1.15-.15.32-.15.5,0,.24.09.47.26.64l.62.62c.1-.15.15-.32.15-.5,0-.24-.09-.47-.26-.64l-.62-.62h0ZM3.27,6.55l-.62-.62c-.17-.17-.4-.26-.63-.26-.18,0-.35.05-.5.15l.62.62c.17.17.4.26.64.26.18,0,.35-.05.5-.15h0ZM.5,3.27l.62-.62c.17-.17.26-.4.26-.64,0-.18-.05-.35-.15-.5l-.62.62c-.17.17-.26.4-.26.64,0,.18.05.35.15.5h0Z"/>
  <g>
    <path class="cls-2" d="M10.09,3.19v.07h-.64v-.07h.11s-.1-.35-.1-.35h-.36l-.07.35h.11v.08h-.48v-.07h.11s.48-1.34.48-1.34l.27-.04.49,1.38h.11ZM9.43,2.76l-.19-.67-.14.67h.32Z"/>
    <path class="cls-2" d="M11.55,3.19v.07h-.52l-.29-.57h0s-.08,0-.14,0v.49h.11v.08h-.57v-.07h.11v-1.28h-.11v-.08h.41s.32-.02.32-.02c.1,0,.19.02.26.06.07.04.13.09.17.15s.06.13.06.21c0,.09-.03.17-.08.23-.05.07-.13.12-.23.16l.38.57h.1ZM10.61,2.61c.12,0,.21-.04.28-.1.07-.06.1-.14.1-.23,0-.07-.02-.13-.05-.19s-.08-.1-.13-.13-.12-.05-.19-.05v.71Z"/>
    <path class="cls-2" d="M12.09,3.19h.11v.08h-.57v-.07h.11v-1.28h-.11v-.08h.57v.08h-.11v1.28ZM13.05,3.19v.07h-.67v-.07h.1s-.36-.63-.36-.63l.46-.65h-.1v-.08h.51v.08h-.12s-.48.46-.48.46l.54.82h.11Z"/>
    <path class="cls-2" d="M14.51,3.19v.07h-.64v-.07h.11s-.1-.35-.1-.35h-.36l-.07.35h.11v.08h-.48v-.07h.11s.48-1.34.48-1.34l.27-.04.49,1.38h.11ZM13.85,2.76l-.19-.67-.14.67h.32Z"/>
    <path class="cls-2" d="M15.99,1.83v.08h-.11s-.06,1.36-.06,1.36h-.26s-.77-1.21-.77-1.21l.08,1.14h.13v.08h-.44v-.07h.11s.04-1.28.04-1.28h-.11v-.08h.53l.62.97-.06-.89h-.13v-.08h.42Z"/>
  </g>
  <g>
    <path class="cls-2" d="M16.67,2.34h.14l.34.93h-.14l-.09-.28h-.37l-.1.28h-.13l.35-.93ZM16.88,2.89l-.14-.41-.15.41h.29Z"/>
    <path class="cls-2" d="M17.38,2.34h.11v.93h-.11v-.93Z"/>
    <path class="cls-2" d="M17.77,2.85h.32v.12h-.32v-.12Z"/>
    <path class="cls-2" d="M18.38,2.41h.11v.19h.11v.09h-.11v.44s0,.04.02.05c0,0,.02,0,.04,0,0,0,.01,0,.02,0,0,0,.01,0,.02,0v.09s-.03,0-.04,0c-.01,0-.03,0-.05,0-.05,0-.09-.01-.11-.04s-.03-.06-.03-.11v-.45h-.09v-.09h.09v-.19Z"/>
    <path class="cls-2" d="M19.21,2.86s.04-.01.05-.03c0-.01,0-.02,0-.04,0-.04-.01-.07-.04-.08-.03-.02-.07-.03-.12-.03-.06,0-.1.02-.13.05-.01.02-.02.04-.03.08h-.11c0-.08.03-.14.08-.17.05-.03.11-.05.18-.05.08,0,.14.02.19.05.05.03.07.08.07.14v.39s0,.02,0,.03c0,0,.02.01.03.01,0,0,.01,0,.02,0,0,0,.01,0,.02,0v.08s-.03,0-.04,0c0,0-.02,0-.04,0-.04,0-.07-.01-.09-.04,0-.01-.02-.04-.02-.06-.02.03-.06.06-.1.08-.04.02-.09.03-.14.03-.06,0-.11-.02-.15-.06-.04-.04-.06-.09-.06-.14,0-.06.02-.11.06-.15.04-.03.09-.06.15-.06l.18-.02ZM18.97,3.17s.05.03.09.03c.04,0,.08,0,.12-.03.06-.03.09-.08.09-.15v-.09s-.03.02-.05.02c-.02,0-.04.01-.06.01h-.07s-.07.02-.09.03c-.04.02-.05.05-.05.09,0,.03.01.06.04.08Z"/>
    <path class="cls-2" d="M19.75,2.39s.08-.06.15-.06c0,0,.01,0,.02,0,0,0,.02,0,.03,0v.1s-.02,0-.03,0c0,0-.01,0-.02,0-.03,0-.06,0-.06.03,0,.02-.01.06-.01.14h.11v.09h-.11v.58h-.11v-.58h-.09v-.09h.09v-.11s0-.08.02-.1Z"/>
    <path class="cls-2" d="M20.55,2.86s.04-.01.05-.03c0-.01,0-.02,0-.04,0-.04-.01-.07-.04-.08-.03-.02-.07-.03-.12-.03-.06,0-.1.02-.13.05-.01.02-.02.04-.03.08h-.11c0-.08.03-.14.08-.17.05-.03.11-.05.18-.05.08,0,.14.02.19.05.05.03.07.08.07.14v.39s0,.02,0,.03c0,0,.02.01.03.01,0,0,.01,0,.02,0,0,0,.01,0,.02,0v.08s-.03,0-.04,0c0,0-.02,0-.04,0-.04,0-.07-.01-.09-.04,0-.01-.02-.04-.02-.06-.02.03-.06.06-.1.08-.04.02-.09.03-.14.03-.06,0-.11-.02-.15-.06-.04-.04-.06-.09-.06-.14,0-.06.02-.11.06-.15.04-.03.09-.06.15-.06l.18-.02ZM20.31,3.17s.05.03.09.03c.04,0,.08,0,.12-.03.06-.03.09-.08.09-.15v-.09s-.03.02-.05.02c-.02,0-.04.01-.06.01h-.07s-.07.02-.09.03c-.04.02-.05.05-.05.09,0,.03.01.06.04.08Z"/>
    <path class="cls-2" d="M21.08,2.59l.13.53.13-.53h.13l.13.53.14-.53h.11l-.2.68h-.12l-.14-.52-.13.52h-.12l-.2-.68h.12Z"/>
    <path class="cls-2" d="M22.21,2.59v.45s0,.06.02.08c.02.04.06.06.11.06.08,0,.13-.04.16-.11.02-.04.02-.09.02-.16v-.33h.11v.68h-.11v-.1s-.03.05-.05.07c-.04.04-.09.05-.15.05-.09,0-.16-.03-.19-.1-.02-.03-.03-.08-.03-.14v-.46h.12Z"/>
    <path class="cls-2" d="M23.32,2.62s.04.04.06.07v-.09h.11v.95h-.11v-.35s-.05.05-.08.07c-.03.02-.08.03-.13.03-.07,0-.14-.03-.19-.08-.06-.06-.09-.14-.09-.26,0-.11.03-.2.08-.27.05-.07.12-.1.21-.1.06,0,.1.01.14.04ZM23.04,3.09c.03.07.08.11.16.11.08,0,.13-.04.16-.11.02-.04.02-.09.02-.16,0-.06,0-.11-.03-.15-.03-.07-.08-.1-.16-.1-.05,0-.09.02-.13.06-.04.04-.05.11-.05.2,0,.06,0,.11.02.15Z"/>
  </g>
  <g>
    <path class="cls-2" d="M8.71,4.35h.4v.07h-.32v.17h.28v.07h-.28v.26h-.08v-.57Z"/>
    <path class="cls-2" d="M10.04,4.43c.04.05.06.12.06.19,0,.09-.02.16-.07.21-.05.07-.12.1-.22.1-.09,0-.16-.03-.21-.09-.05-.06-.07-.13-.07-.21,0-.08.02-.14.06-.2.05-.07.12-.11.22-.11s.18.03.23.1ZM9.98,4.8s.05-.11.05-.17c0-.07-.02-.12-.05-.16-.04-.04-.08-.06-.14-.06s-.11.02-.15.06-.06.1-.06.18c0,.06.02.12.05.16.03.04.08.07.16.07.07,0,.12-.02.15-.07Z"/>
    <path class="cls-2" d="M10.58,4.35h.26s.08,0,.11.02c.05.02.08.07.08.14,0,.03,0,.06-.02.08-.01.02-.03.04-.06.05.02,0,.04.02.05.04s.02.04.02.07v.08s0,.04,0,.05c0,.02.01.03.02.04h0s-.1.01-.1.01c0,0,0-.01,0-.02s0-.02,0-.05v-.1s-.02-.06-.05-.08c-.01,0-.04-.01-.07-.01h-.17v.25h-.08v-.57ZM10.83,4.61s.06,0,.08-.02c.02-.01.03-.04.03-.08,0-.04-.01-.07-.04-.08-.02,0-.04-.01-.06-.01h-.18v.2h.17Z"/>
    <path class="cls-2" d="M12.53,4.39s.06.08.07.13h-.08s-.03-.07-.05-.09c-.03-.02-.06-.03-.11-.03-.06,0-.1.02-.13.06-.03.04-.05.1-.05.18,0,.07.02.12.05.16.03.04.08.06.14.06.06,0,.1-.02.13-.07.02-.02.03-.05.03-.09h.08c0,.06-.03.11-.07.15-.05.05-.11.07-.18.07-.07,0-.12-.02-.17-.06-.06-.05-.09-.14-.09-.25,0-.08.02-.15.07-.21.05-.06.11-.09.2-.09.07,0,.13.02.17.06Z"/>
    <path class="cls-2" d="M13.55,4.43c.04.05.06.12.06.19,0,.09-.02.16-.07.21-.05.07-.12.1-.22.1-.09,0-.16-.03-.21-.09-.05-.06-.07-.13-.07-.21,0-.08.02-.14.06-.2.05-.07.12-.11.22-.11s.18.03.22.1ZM13.48,4.8s.05-.11.05-.17c0-.07-.02-.12-.05-.16-.04-.04-.08-.06-.14-.06s-.11.02-.15.06-.06.1-.06.18c0,.06.02.12.05.16.03.04.08.07.16.07.07,0,.12-.02.15-.07Z"/>
    <path class="cls-2" d="M14.07,4.35h.09l.29.46v-.46h.07v.57h-.09l-.29-.46v.46h-.07v-.57Z"/>
    <path class="cls-2" d="M15.08,4.74s0,.06.02.08c.02.04.07.06.13.06.03,0,.05,0,.08-.01.04-.02.07-.05.07-.09,0-.03,0-.05-.03-.07-.02-.01-.05-.02-.09-.03l-.08-.02s-.08-.02-.1-.04c-.04-.02-.05-.06-.05-.11,0-.05.02-.09.05-.13.03-.03.08-.05.15-.05.06,0,.11.01.15.04.04.03.06.08.06.14h-.07s-.01-.05-.02-.07c-.02-.03-.06-.04-.12-.04-.04,0-.08,0-.09.03-.02.02-.03.04-.03.07,0,.03.01.05.03.06.01,0,.05.02.1.03l.08.02s.07.02.09.04c.04.03.05.07.05.12,0,.06-.02.11-.07.14-.05.03-.1.04-.16.04-.07,0-.12-.02-.16-.05-.04-.04-.06-.09-.06-.15h.07Z"/>
    <path class="cls-2" d="M16.35,4.35v.07h-.19v.51h-.08v-.51h-.19v-.07h.47Z"/>
    <path class="cls-2" d="M16.81,4.35h.26s.08,0,.11.02c.05.02.08.07.08.14,0,.03,0,.06-.02.08-.01.02-.03.04-.06.05.02,0,.04.02.05.04s.02.04.02.07v.08s0,.04,0,.05c0,.02.01.03.02.04h0s-.1.01-.1.01c0,0,0-.01,0-.02s0-.02,0-.05v-.1s-.02-.06-.05-.08c-.01,0-.04-.01-.07-.01h-.17v.25h-.08v-.57ZM17.06,4.61s.06,0,.08-.02c.02-.01.03-.04.03-.08,0-.04-.01-.07-.04-.08-.02,0-.04-.01-.06-.01h-.18v.2h.17Z"/>
    <path class="cls-2" d="M17.84,4.35v.35s0,.08.02.1c.02.04.06.06.12.06.07,0,.11-.02.14-.07.01-.02.02-.06.02-.1v-.35h.08v.32c0,.07,0,.12-.03.16-.03.07-.1.1-.2.1s-.16-.03-.2-.1c-.02-.04-.03-.09-.03-.16v-.32h.08Z"/>
    <path class="cls-2" d="M19.11,4.39s.06.08.07.13h-.08s-.03-.07-.05-.09c-.03-.02-.06-.03-.11-.03-.06,0-.1.02-.13.06-.03.04-.05.1-.05.18,0,.07.02.12.05.16.03.04.08.06.14.06.06,0,.1-.02.13-.07.02-.02.03-.05.03-.09h.08c0,.06-.03.11-.07.15-.05.05-.11.07-.18.07-.07,0-.12-.02-.17-.06-.06-.05-.09-.14-.09-.25,0-.08.02-.15.07-.21.05-.06.11-.09.2-.09.07,0,.13.02.17.06Z"/>
    <path class="cls-2" d="M20.08,4.35v.07h-.19v.51h-.08v-.51h-.19v-.07h.47Z"/>
    <path class="cls-2" d="M20.54,4.35h.08v.57h-.08v-.57Z"/>
    <path class="cls-2" d="M21.6,4.43c.04.05.06.12.06.19,0,.09-.02.16-.07.21-.05.07-.12.1-.22.1-.09,0-.16-.03-.21-.09-.05-.06-.07-.13-.07-.21,0-.08.02-.14.06-.2.05-.07.12-.11.22-.11s.18.03.22.1ZM21.53,4.8s.05-.11.05-.17c0-.07-.02-.12-.05-.16-.04-.04-.08-.06-.14-.06s-.11.02-.15.06-.06.1-.06.18c0,.06.02.12.05.16.03.04.08.07.16.07.07,0,.12-.02.15-.07Z"/>
    <path class="cls-2" d="M22.12,4.35h.09l.29.46v-.46h.07v.57h-.09l-.29-.46v.46h-.07v-.57Z"/>
    <path class="cls-2" d="M23.13,4.74s0,.06.02.08c.02.04.07.06.13.06.03,0,.05,0,.08-.01.04-.02.07-.05.07-.09,0-.03,0-.05-.03-.07-.02-.01-.05-.02-.09-.03l-.08-.02s-.08-.02-.1-.04c-.04-.02-.05-.06-.05-.11,0-.05.02-.09.05-.13.03-.03.08-.05.15-.05.06,0,.11.01.15.04.04.03.06.08.06.14h-.07s-.01-.05-.02-.07c-.02-.03-.06-.04-.12-.04-.04,0-.08,0-.09.03-.02.02-.03.04-.03.07,0,.03.01.05.03.06.01,0,.05.02.1.03l.08.02s.07.02.09.04c.04.03.05.07.05.12,0,.06-.02.11-.07.14-.05.03-.1.04-.16.04-.07,0-.12-.02-.16-.05-.04-.04-.06-.09-.06-.15h.07Z"/>
  </g>
</svg>